<svg xmlns="http://www.w3.org/2000/svg" width="100" height="100" id="dinersclub"><g transform="translate(94.295 -287.583)"><rect width="63.214" height="40.714" x="-73.879" y="317.729" fill="#f9f9f9" fill-rule="evenodd" stroke="#000" stroke-linecap="round" stroke-linejoin="round" stroke-width=".8" rx="3.599" ry="3.599"></rect><g fill="none"><path fill="#4186cd" d="M-40.111 344.643c6.263.03 11.98-5.117 11.98-11.378 0-6.847-5.717-11.58-11.98-11.578h-5.39c-6.339-.002-11.555 4.732-11.555 11.578 0 6.262 5.216 11.408 11.554 11.378h5.39z"></path><path fill="#fff" d="M-45.58 322.605c-5.831.002-10.557 4.728-10.558 10.56.001 5.832 4.727 10.558 10.559 10.56 5.833-.002 10.56-4.728 10.56-10.56 0-5.832-4.727-10.558-10.56-10.56zm-6.426 10.331c.005-2.828 1.717-5.24 4.132-6.199v12.397c-2.415-.958-4.127-3.369-4.132-6.198zm8.723 6.198v-12.397c2.414.956 4.128 3.369 4.132 6.198-.004 2.83-1.718 5.24-4.132 6.199z"></path><path fill="#211e1f" d="M-65.721 348.451c0-.947-.499-.884-.977-.895v-.273c.414.02.84.02 1.254.02.447 0 1.053-.02 1.84-.02 2.753 0 4.252 1.82 4.252 3.684 0 1.042-.616 3.662-4.38 3.662-.542 0-1.042-.02-1.541-.02-.479 0-.947.01-1.425.02v-.273c.637-.064.946-.085.977-.8v-5.105zm.86 4.847c0 .78.581.872 1.099.872 2.283 0 3.033-1.653 3.033-3.164 0-1.895-1.269-3.264-3.308-3.264-.434 0-.633.03-.824.04v5.516zm5.509 1.07h.203c.3 0 .515 0 .515-.333v-2.721c0-.442-.16-.503-.558-.703v-.161c.504-.142 1.106-.331 1.148-.362.076-.04.14-.05.194-.05.053 0 .075.06.075.141v3.856c0 .333.236.333.536.333h.183v.26c-.366 0-.741-.02-1.127-.02s-.773.01-1.169.02v-.26zm.918-6.167a.48.48 0 0 1-.459-.468c0-.234.225-.45.459-.45a.46.46 0 0 1 .46.45.468.468 0 0 1-.46.468zm2.5 3.173c0-.372-.11-.472-.582-.663v-.19c.432-.141.844-.272 1.327-.483.03 0 .06.02.06.1v.653c.574-.411 1.067-.753 1.742-.753.854 0 1.156.623 1.156 1.406v2.591c0 .333.22.333.503.333h.181v.26c-.353 0-.705-.02-1.066-.02-.363 0-.725.01-1.087.02v-.26h.18c.283 0 .483 0 .483-.333v-2.6c0-.574-.35-.855-.925-.855-.321 0-.834.261-1.168.483v2.972c0 .333.223.333.505.333h.18v.26c-.351 0-.704-.02-1.066-.02-.362 0-.725.01-1.086.02v-.26h.181c.282 0 .483 0 .483-.333v-2.661zm5.267.6c-.023.097-.023.257 0 .622.064 1.015.736 1.85 1.614 1.85.605 0 1.079-.321 1.485-.717l.153.15c-.506.653-1.132 1.209-2.033 1.209-1.747 0-2.099-1.648-2.099-2.332 0-2.098 1.45-2.718 2.22-2.718.89 0 1.847.545 1.857 1.68 0 .064 0 .128-.01.193l-.1.064h-3.087zm2.017-.559c.283 0 .317-.102.317-.196 0-.4-.352-.722-.99-.722-.692 0-1.17.352-1.306.918h1.979zm1.235 2.953h.255c.263 0 .451 0 .451-.333v-2.822c0-.31-.348-.372-.49-.452v-.15c.688-.312 1.066-.573 1.151-.573.056 0 .084.03.084.13v.905h.02c.235-.392.632-1.035 1.206-1.035.236 0 .537.17.537.532 0 .271-.179.513-.442.513-.294 0-.294-.242-.623-.242-.16 0-.688.232-.688.835v2.36c0 .332.188.332.452.332h.528v.26c-.519-.01-.913-.02-1.32-.02-.385 0-.782.01-1.12.02v-.26h-.001zm3.863-.928c.137.706.558 1.306 1.328 1.306.62 0 .853-.385.853-.76 0-1.263-2.297-.856-2.297-2.578 0-.6.475-1.37 1.633-1.37.337 0 .79.097 1.2.31l.075 1.091h-.242c-.105-.673-.474-1.059-1.15-1.059-.42 0-.82.247-.82.706 0 1.253 2.444.867 2.444 2.546 0 .706-.559 1.456-1.813 1.456-.421 0-.916-.15-1.285-.363l-.116-1.23.19-.055zm12.196-4.055h-.256c-.196-1.254-1.048-1.758-2.198-1.758-1.182 0-2.897.825-2.897 3.397 0 2.167 1.48 3.721 3.061 3.721 1.016 0 1.86-.729 2.065-1.855l.235.064-.235 1.565c-.432.28-1.592.569-2.27.569-2.403 0-3.922-1.619-3.922-4.03 0-2.199 1.878-3.775 3.891-3.775.832 0 1.633.28 2.423.57l.103 1.532zm.47 4.978h.203c.3 0 .516 0 .516-.338v-5.689c0-.664-.161-.684-.57-.797v-.163c.43-.132.88-.317 1.106-.44.117-.06.204-.112.235-.112.066 0 .087.062.087.144v7.057c0 .338.236.338.537.338h.181v.266c-.363 0-.739-.02-1.126-.02-.386 0-.772.01-1.17.02v-.266zm6.653-.438c0 .182.112.191.285.191.122 0 .274-.01.407-.01v.212c-.438.04-1.273.251-1.467.31l-.05-.03v-.812c-.61.491-1.08.843-1.803.843-.55 0-1.12-.352-1.12-1.195v-2.573c0-.26-.04-.512-.61-.562v-.191c.367-.01 1.18-.07 1.313-.07.113 0 .113.07.113.29v2.592c0 .302 0 1.166.885 1.166.346 0 .804-.261 1.231-.612v-2.704c0-.2-.488-.31-.854-.41v-.182c.915-.06 1.487-.14 1.588-.14.082 0 .082.07.082.18v3.707zm2.128-3.08c.431-.36 1.014-.764 1.608-.764 1.252 0 2.007 1.072 2.007 2.228 0 1.39-1.036 2.779-2.58 2.779-.798 0-1.219-.255-1.5-.371l-.323.243-.226-.116c.096-.626.15-1.241.15-1.888v-4.561c0-.69-.162-.712-.572-.828v-.17a6.881 6.881 0 0 0 1.112-.456c.119-.064.205-.117.238-.117.064 0 .086.064.086.15v3.87zm-.058 2.708c0 .4.388 1.076 1.112 1.076 1.156 0 1.642-1.108 1.642-2.046 0-1.138-.885-2.086-1.728-2.086-.4 0-.735.253-1.026.496v2.56z"></path></g></g></svg>