<svg xmlns="http://www.w3.org/2000/svg" width="100" height="100" id="jcb"><g transform="translate(94.295 -285.058)"><rect width="63.214" height="40.714" x="-73.879" y="317.729" fill="#f9f9f9" fill-rule="evenodd" stroke="#000" stroke-linecap="round" stroke-linejoin="round" stroke-width=".8" rx="3.599" ry="3.599"></rect><g fill="none"><path fill="#479951" d="M-32.912 338.769H-30.242a1.813 1.813 0 0 1 .292.03l.017.004a1.076 1.076 0 0 1 .22.075 1.156 1.156 0 0 1 .398.295 1.193 1.193 0 0 1 .296.8 1.273 1.273 0 0 1-.12.536 1.176 1.176 0 0 1-.794.636l-.017.004a.56.56 0 0 1-.071.012 1.866 1.866 0 0 1-.22.018H-32.913v-2.41zm3.553-2.728a1.197 1.197 0 0 1-.088.764 1.047 1.047 0 0 1-.486.48 1.16 1.16 0 0 1-.308.102l-.011.002a.734.734 0 0 1-.078.01 2.438 2.438 0 0 1-.176.01H-32.912v-2.223H-30.462a1.907 1.907 0 0 1 .21.019l.01.002a1.108 1.108 0 0 1 .31.102 1.148 1.148 0 0 1 .308.228 1.04 1.04 0 0 1 .265.504s-.011-.052 0 0zm5.472-11.533h.018v22.842a4.616 4.616 0 0 1-.415 1.905 4.629 4.629 0 0 1-.574.933 4.248 4.248 0 0 1-.088.107l-.044.052a4.76 4.76 0 0 1-.133.146l-.044.045-.044.045-.044.043-.044.043a4.668 4.668 0 0 1-.22.195l-.045.036-.044.036-.044.034-.044.034-.044.032-.045.033-.044.03-.044.031-.044.03-.044.029a4.289 4.289 0 0 1-.132.082l-.045.026-.044.025-.044.025-.044.024-.044.024-.044.023-.044.022-.045.022-.044.02-.044.021-.044.02-.044.02-.044.019-.044.018-.044.018-.045.017-.044.017-.044.016-.044.015-.044.016-.044.014-.044.015-.045.013-.044.013-.044.013-.044.012-.044.012-.044.011-.044.01-.044.011-.045.01-.044.01-.044.008-.044.009-.044.008-.044.007-.044.008-.044.006-.045.007-.044.006-.044.005-.044.005-.044.004-.044.004-.044.004-.045.003-.044.003-.044.003-.044.001-.044.002-.044.001h-.044l-.044.001H-35.148v-9.313H-27.99l.044-.001.044-.001.044-.002.044-.002.045-.003.044-.003.044-.003.044-.005c.015 0 .03-.002.044-.004l.044-.005.044-.005.044-.006.045-.006.044-.007.044-.008.044-.008.044-.008.044-.009.044-.01.044-.01.045-.01a3.367 3.367 0 0 0 .176-.05l.044-.013a2.897 2.897 0 0 0 .133-.045l.044-.017.044-.017.044-.018a2.844 2.844 0 0 0 .706-.43 2.258 2.258 0 0 0 .397-.45 2.063 2.063 0 0 0 .221-.452 2.001 2.001 0 0 0 .088-.38 2.207 2.207 0 0 0 0-.58 1.938 1.938 0 0 0-.22-.662 1.902 1.902 0 0 0-.353-.457 2.165 2.165 0 0 0-.31-.252 2.708 2.708 0 0 0-.529-.283l-.044-.018a3.351 3.351 0 0 0-.044-.017l-.044-.016a3.87 3.87 0 0 0-.177-.058l-.044-.013-.044-.012a3.374 3.374 0 0 0-.22-.053l-.045-.01-.044-.008-.044-.008a3.346 3.346 0 0 0-.044-.007l-.044-.007a3.445 3.445 0 0 0-.045-.006l-.044-.006-.044-.006-.044-.005-.044-.005-.044-.004-.044-.003-.041-.003v-.053l.04-.007.045-.007.044-.008.044-.008.044-.01.044-.009.044-.01.045-.011a3.092 3.092 0 0 0 .53-.19 2.59 2.59 0 0 0 .396-.24 2.054 2.054 0 0 0 .662-.848 1.933 1.933 0 0 0 .133-.537 2.083 2.083 0 0 0 0-.434 2.028 2.028 0 0 0-.133-.543 1.805 1.805 0 0 0-.485-.682 2.13 2.13 0 0 0-.441-.307 2.645 2.645 0 0 0-.486-.204 3.1 3.1 0 0 0-.044-.014l-.044-.013a3.246 3.246 0 0 0-.088-.024l-.045-.011a3.265 3.265 0 0 0-.088-.02l-.044-.01-.044-.009-.044-.008-.044-.008-.044-.007-.045-.007-.044-.006-.044-.006-.044-.005-.044-.005-.044-.004-.044-.004-.045-.004-.044-.003-.044-.002-.017-.001-.027-.002-.044-.002-.044-.003-.044-.002-.044-.002-.045-.002-.044-.002-.044-.001-.044-.001H-35.148v-4.745a4.584 4.584 0 0 1 .493-2.064 4.743 4.743 0 0 1 .309-.52l.044-.063.044-.06.044-.06.044-.057.044-.054a4.115 4.115 0 0 1 .089-.106l.044-.05.044-.05a4.898 4.898 0 0 1 .176-.181l.045-.043.044-.041.044-.041.044-.04a4.898 4.898 0 0 1 .177-.147l.044-.035.044-.033a4.765 4.765 0 0 1 .088-.065l.044-.032.044-.03.044-.03.045-.03.044-.028.044-.027.044-.027.044-.026.044-.026.044-.025.044-.025.045-.023.044-.023.044-.022.044-.022.044-.022.044-.02.044-.02.045-.02.044-.02.044-.017.044-.018.044-.018.044-.017.044-.016.044-.016.045-.015.044-.015.044-.014.044-.014.044-.013.044-.013.044-.012.045-.012.044-.012.044-.01.044-.011.044-.01.044-.01.044-.008.044-.009.045-.008.044-.008.044-.007.044-.007.044-.006.044-.006.044-.006.045-.005.044-.005.044-.004.044-.003.044-.004c.015 0 .03-.002.044-.003l.044-.002.044-.002.045-.002.044-.001h.044l.044-.001H-23.887z"></path><path fill="#265797" d="m-60.292 340.405-.094-.046v-11.282a4.584 4.584 0 0 1 .49-2.062 4.4 4.4 0 0 1 .31-.52l.043-.063.044-.06.044-.059.044-.057.044-.055a4.39 4.39 0 0 1 .088-.106l.045-.05.044-.049.044-.047a4.386 4.386 0 0 1 .088-.091l.044-.044.044-.043.044-.04.044-.042.044-.039.044-.038.044-.037a4.242 4.242 0 0 1 .22-.174l.044-.032a4.18 4.18 0 0 1 .177-.12l.044-.03.044-.027.044-.027.044-.026.044-.026.044-.025.044-.024.044-.024.044-.023.044-.022.044-.022.044-.022.044-.02.044-.02.044-.02.045-.02.044-.017.044-.018.044-.018.044-.017.044-.016.044-.016.044-.015.044-.015.044-.014.044-.014.044-.013c.015-.005.03-.01.044-.013l.044-.013.044-.012.044-.011.044-.01.044-.012.044-.01.045-.009.044-.01.044-.008.044-.008.044-.008.044-.007.044-.007.044-.006.044-.006.044-.006.044-.005.044-.005.044-.004.044-.004.044-.003.044-.003.044-.003.044-.002.045-.002.044-.001h.044l.044-.001H-49.11v22.841a4.61 4.61 0 0 1-.301 1.635 4.603 4.603 0 0 1-.661 1.17l-.044.055-.044.054-.044.052-.044.05-.044.05-.045.048-.044.047a4.657 4.657 0 0 1-.176.174l-.044.04-.044.04-.044.039-.044.037-.044.037-.044.036-.044.035-.044.034c-.015.01-.03.022-.044.033l-.044.032-.044.032-.044.03-.044.031-.045.03-.044.028c-.014.01-.029.018-.044.027l-.044.028-.044.026-.044.026-.044.025a3.923 3.923 0 0 1-.088.049l-.044.023-.044.023-.044.022-.044.021-.044.02-.044.021-.044.02-.044.02-.044.018-.045.018-.044.018-.044.016-.044.017-.044.016-.044.016-.044.015-.044.014-.044.014-.044.013-.044.013-.044.013-.044.012-.044.012-.044.01-.044.011-.044.01-.044.01-.045.01-.044.008-.044.008-.044.008-.044.008-.044.007-.044.006-.044.006-.044.006-.044.005-.044.005-.044.005-.044.004c-.015 0-.03.002-.044.003l-.044.003-.044.003-.044.002-.044.002-.044.002h-.045l-.044.001H-60.386v-9.627l.094.024.044.011.044.011.044.01.044.011.044.01.045.01.044.01.044.01.044.01.044.01.044.009.044.01.044.008.044.01.044.008.044.009.044.009.044.008.044.009.044.008.044.008.044.009.044.008.045.007.044.008.044.008.044.008.044.007.044.008.044.007.044.007.044.007.044.007.044.007.044.007.044.007.044.006.044.007.044.006.044.007.044.006.045.006.044.006.044.006.044.006.044.006.044.006.044.005.044.006.044.005.044.005.044.005.044.006.044.005.044.005.044.004.044.005.044.005.044.004.044.005.045.004.044.004.044.005.044.004.044.004.044.003.044.004.044.004.044.004.044.003.044.003.044.004.044.003.044.003.044.003.044.003.044.003.044.003.044.002.045.003.044.002.044.002.044.003.044.002.044.002.044.002.044.002.044.001.044.002.044.002.044.001.044.001.044.002h.044l.044.002h.044l.044.001.045.001h.044l.044.001h.044l.044.001H-55.49l.044-.002h.044l.044-.001.044-.001.044-.001.044-.002.045-.001.044-.001.044-.002.044-.002.044-.002.044-.002.044-.002.044-.002.044-.003.044-.002.044-.003.044-.003.044-.003.044-.003.044-.003.044-.004.044-.003.044-.004.044-.004.045-.004.044-.005.044-.004.044-.005.044-.005.044-.005.044-.005.044-.005.044-.006.044-.006.044-.006.044-.006.044-.006.044-.007.044-.006.044-.007.044-.008.044-.007.045-.008.044-.008.044-.008.044-.008.044-.009.044-.009.044-.009.044-.01c.015-.002.03-.006.044-.01l.044-.009.044-.01.044-.01.044-.012.044-.01.044-.012.044-.012.044-.011.044-.013.044-.013.045-.012.044-.014.044-.014.044-.014.044-.014.044-.015.044-.015.044-.016.044-.016.044-.016.044-.018.044-.017.044-.018.044-.018.044-.019.044-.02.044-.02.044-.02.045-.02.044-.022.044-.023.044-.022.044-.024a4.201 4.201 0 0 0 .132-.075l.044-.027.044-.027.044-.028.044-.03.044-.029.044-.031.044-.032.044-.033a3.252 3.252 0 0 0 .133-.107l.044-.038.044-.04.044-.04a2.884 2.884 0 0 0 .088-.088l.044-.046.044-.049a2.845 2.845 0 0 0 .484-.758 3.07 3.07 0 0 0 .177-.524 3.593 3.593 0 0 0 .088-.523c.015-.149.022-.3.022-.455v-5.3H-53.981v5.3a2.786 2.786 0 0 1-.055.543 2.357 2.357 0 0 1-.176.52 2.022 2.022 0 0 1-.44.593 2.058 2.058 0 0 1-.618.392 2.22 2.22 0 0 1-.264.094 2.39 2.39 0 0 1-.044.013l-.044.012a2.662 2.662 0 0 1-.176.039l-.044.008-.044.007-.044.007a3.26 3.26 0 0 1-.089.012l-.044.005-.044.004-.044.004a3.84 3.84 0 0 1-.088.005l-.044.002-.044.002h-.044l-.044.001h-.132l-.044-.002h-.044l-.044-.002-.044-.002-.044-.002-.045-.002-.044-.003-.044-.003-.044-.003-.044-.003-.044-.004-.044-.004-.044-.004-.044-.005-.044-.004-.044-.005-.044-.006-.044-.005-.044-.006-.044-.006-.044-.007-.044-.006-.044-.007-.044-.007-.045-.008-.044-.007-.044-.008-.044-.008-.044-.009-.044-.009-.044-.008-.044-.01-.044-.01-.044-.009-.044-.01-.044-.01-.044-.01-.044-.01-.044-.012-.044-.01-.044-.012-.044-.012-.044-.012-.045-.012-.044-.012-.044-.013-.044-.012-.044-.014-.044-.013-.044-.013-.044-.014-.044-.014-.044-.014-.044-.015-.044-.014-.044-.015-.044-.015-.044-.015-.044-.016-.044-.016-.044-.015-.045-.017-.044-.016-.044-.017-.044-.016-.044-.017-.044-.018-.044-.017-.044-.018-.044-.018-.044-.018-.044-.018-.044-.018-.044-.02-.044-.018-.044-.019-.044-.02-.044-.019-.044-.02-.045-.02-.044-.02-.044-.02-.044-.02-.044-.02-.044-.021z"></path><path fill="#ca4638" d="M-47.49 334.98a4.146 4.146 0 0 0-.094.078v-5.981a4.585 4.585 0 0 1 .491-2.061 4.51 4.51 0 0 1 .308-.52l.044-.063.044-.06.045-.06.044-.057.044-.055a4.454 4.454 0 0 1 .088-.105l.044-.05.044-.05a4.5 4.5 0 0 1 .088-.093l.044-.045.044-.043.044-.043.044-.041.044-.041.044-.04.044-.038.044-.037a5.318 5.318 0 0 1 .309-.237 5.256 5.256 0 0 1 .088-.06l.044-.03.044-.028.044-.027.044-.028.044-.026.044-.026.044-.024.044-.025.044-.023.044-.024.045-.022.044-.022.044-.021.044-.02c.014-.008.029-.015.044-.021l.044-.02.044-.019.044-.018.044-.018.044-.018.044-.016.044-.017.044-.016.044-.015.044-.015.044-.014.044-.014.045-.013c.014-.005.029-.01.044-.013l.044-.013.044-.012.044-.011.044-.01.044-.012.044-.01.044-.009.044-.01.044-.008.044-.008.044-.008.044-.007.044-.007.044-.006.044-.006.044-.006.045-.005.044-.005.044-.004.044-.004.044-.003.044-.003.044-.003.044-.002.044-.002.044-.001h.044l.044-.001H-36.306v22.841a4.606 4.606 0 0 1-.302 1.635 4.507 4.507 0 0 1-.44.86l-.044.067a4.771 4.771 0 0 1-.22.297l-.045.055-.044.052-.044.05-.044.05-.044.048-.044.047-.044.045a4.527 4.527 0 0 1-.088.087l-.044.041-.044.041-.044.04-.044.039-.044.037-.044.037-.044.036-.044.035-.044.034-.045.033-.044.032-.044.032-.044.03-.044.03-.044.03-.044.029c-.014.01-.03.018-.044.027l-.044.028-.044.026-.044.026-.044.025-.044.025-.044.024-.044.023-.044.023-.044.021-.045.022-.044.02c-.014.008-.029.015-.044.021l-.044.02-.044.02-.044.018-.044.018-.044.018-.044.016-.044.017-.044.016-.044.015-.044.016-.044.014-.044.014-.044.013-.044.013-.044.013-.045.012-.044.012-.044.01-.044.011-.044.01-.044.01-.044.01-.044.008-.044.008-.044.008-.044.008-.044.007-.044.006-.044.006-.044.006-.044.005-.044.005-.044.005-.045.004-.044.003-.044.003-.044.003-.044.002-.044.002-.044.002h-.044l-.044.001H-47.584v-10.547a4.24 4.24 0 0 0 .183.148l.044.033.044.032a4.616 4.616 0 0 0 .088.063l.044.03.044.03.044.028.044.028.044.028.044.026.044.027.044.025.044.025.044.024.044.024.044.024.045.022.044.023.044.022.044.02.044.022.044.02.044.02.044.02.044.02.044.018.044.018.044.018.044.018.044.017.044.017.044.017.044.016.044.016.045.015.044.015.044.015.044.015.044.014.044.014.044.014.044.013.044.013.044.013.044.012.044.013.044.012.044.011.044.012.044.011.044.011.044.01.045.012.044.01.044.01.044.01.044.01.044.009.044.009.044.009.044.009.044.008.044.008.044.009.044.008.044.007.044.008.044.007.044.007.044.007.045.007.044.007.044.006.044.007.044.006.044.006.044.005.044.006.044.005.044.006.044.005.044.005.044.005.044.004.044.005.044.004.044.004.045.004.044.004.044.004.044.004.044.003.044.003.044.004.044.003.044.003.044.003.044.002.044.003.044.002.044.002.044.003.044.002.044.002.044.001.045.002.044.002.044.001.044.002h.044l.044.002h.044l.044.002h.044l.044.001h.088l.044.001H-41.894l.044-.001h.044l.044-.001.044-.001.044-.001h.044l.044-.002.044-.001.044-.001.044-.002.044-.001.044-.002.044-.001.044-.002.044-.002.045-.002h.021l.023-.002.044-.002.044-.002.044-.003.044-.002.044-.003.044-.003.044-.003.044-.003.044-.003.044-.004.044-.004.044-.003.044-.004.044-.004.044-.004.045-.005.044-.004.044-.004.044-.005.044-.005.044-.005.044-.005.044-.005.044-.005.044-.005.044-.006.044-.005.044-.006.044-.005.044-.006.044-.006.044-.006.044-.006.045-.007.044-.006.044-.006.044-.007.044-.007.044-.006.044-.007.044-.007.044-.007.044-.007.044-.007.044-.008.044-.007.044-.007.044-.008.044-.007.044-.008.044-.008.045-.008.044-.008.044-.008.044-.008.044-.008.044-.009.044-.008.044-.009.044-.008.044-.009.044-.009.044-.008.044-.01.044-.008.044-.01.044-.009.044-.009.045-.01.044-.009.044-.01.044-.009.044-.01.044-.01.044-.01.044-.01.044-.01.044-.01.044-.01.044-.011.044-.011v-1.933l-.044.022-.044.022-.044.022-.044.02-.044.022-.044.021-.044.02-.044.021-.044.02-.044.02-.044.02-.044.02-.045.02-.044.019-.044.019-.044.018-.044.019-.044.018-.044.018-.044.018-.044.017-.044.018-.044.017-.044.017-.044.016-.044.016-.044.016-.044.016-.044.016-.045.015-.044.015-.044.015-.044.014-.044.015-.044.014-.044.014-.044.013-.044.013-.044.014-.044.012-.044.013-.044.012-.044.012-.044.012-.044.012-.044.01-.044.012-.045.01-.044.011-.044.01-.044.01-.044.01-.044.01-.044.01-.044.008-.044.01-.044.008-.044.008-.044.008-.044.008-.044.008-.044.007-.044.007-.044.007-.044.007-.045.006-.044.006-.044.006-.044.006-.044.005-.044.006-.044.005-.044.004-.044.005-.044.004-.044.004-.044.004-.044.004-.027.002-.017.001-.044.003-.044.003-.044.002-.045.003-.044.002-.044.001-.044.001-.044.001-.044.001h-.176l-.044-.001-.044-.001-.044-.002-.044-.002-.044-.002-.044-.003-.044-.003-.045-.004-.044-.003-.044-.005-.044-.004-.044-.005-.044-.005-.044-.006-.044-.007-.044-.006-.044-.007-.044-.008-.044-.008-.044-.008-.044-.01c-.015-.002-.03-.005-.044-.009l-.044-.01-.044-.01-.044-.011-.045-.012-.044-.012-.044-.012a3.855 3.855 0 0 1-.044-.014l-.044-.013a3.77 3.77 0 0 1-.044-.015l-.044-.015-.044-.016-.044-.016-.044-.017-.044-.018-.044-.019-.044-.019-.044-.02a3.687 3.687 0 0 1-.132-.065l-.044-.023-.045-.025-.044-.025a3.214 3.214 0 0 1-.088-.055l-.044-.028-.044-.03a2.753 2.753 0 0 1-.088-.063l-.044-.034a2.95 2.95 0 0 1-.044-.036l-.044-.036a2.623 2.623 0 0 1-.397-.422 2.573 2.573 0 0 1-.308-.527 2.952 2.952 0 0 1-.22-.726 3.788 3.788 0 0 1-.062-.719 4.286 4.286 0 0 1 .062-.719 3.474 3.474 0 0 1 .132-.504 3.026 3.026 0 0 1 .176-.403 2.737 2.737 0 0 1 .353-.508 2.523 2.523 0 0 1 .22-.222l.044-.039.044-.036a2.946 2.946 0 0 1 .088-.07 2.724 2.724 0 0 1 .088-.063l.044-.03.044-.028a2.706 2.706 0 0 1 .088-.054l.044-.026.045-.024.044-.024a3.325 3.325 0 0 1 .088-.044l.044-.021.044-.02.044-.02.044-.018.044-.018.044-.017.044-.016.044-.016.044-.015a3.89 3.89 0 0 1 .132-.042l.044-.012.044-.012.045-.012.044-.01.044-.011.044-.01.044-.01.044-.009.044-.008.044-.008.044-.008.044-.007.044-.006.044-.007.044-.006.044-.005.044-.005.044-.004.044-.005.044-.003.045-.004.044-.003.044-.003.044-.002.044-.002.044-.002h.044l.044-.002H-41.41l.044.002.044.001.044.001.044.002.045.003.044.002.044.003.044.003.017.001.027.002.044.004.044.004.044.004.044.004.044.004.044.005.044.005.044.005.044.005.044.006.044.006.044.006.045.006.044.007.044.007.044.007.044.007.044.008.044.007.044.008.044.009.044.008.044.009.044.009.044.009.044.01.044.01.044.01.044.01.044.01.045.01.044.012.044.01.044.012.044.012.044.012.044.012.044.013.044.013.044.013.044.013.044.014.044.013.044.014.044.015.044.014.044.015.044.015.045.016.044.015.044.016.044.016.044.017.044.016.044.017.044.017.044.018.044.017.044.018.044.018.044.019.044.018.044.019.044.02.044.018.045.02.044.02.044.02.044.02.044.02.044.021.044.021.044.021.044.022.044.021.044.022.044.022.044.022v-1.934l-.044-.01-.044-.011-.044-.01-.044-.011-.044-.01-.044-.01-.044-.01-.044-.01-.044-.01-.044-.01-.044-.01-.044-.009-.045-.01-.044-.008-.044-.01-.044-.009-.044-.009-.044-.009-.044-.008-.044-.01-.044-.008-.044-.008-.044-.009-.044-.008-.044-.009-.044-.008-.044-.008-.044-.008-.044-.008-.045-.008-.044-.008-.044-.007-.044-.008-.044-.008-.044-.007-.044-.007-.044-.008-.044-.007-.044-.007-.044-.007-.044-.007-.044-.007-.044-.006-.044-.007-.044-.006-.044-.007-.044-.006-.045-.006-.044-.006-.044-.006-.044-.006-.044-.006-.044-.006-.044-.005-.044-.006-.044-.005-.044-.006-.044-.005-.044-.005-.044-.005-.044-.005-.044-.004-.044-.005-.044-.004-.044-.005-.045-.004-.044-.004-.044-.004-.044-.004-.044-.004-.044-.003-.044-.004-.044-.003-.044-.003-.044-.003-.044-.003-.044-.003-.044-.003-.044-.002-.044-.002-.044-.002-.023-.001-.021-.001-.045-.002-.044-.002-.044-.002-.044-.001-.044-.002-.044-.001-.044-.002-.044-.001-.044-.001-.044-.001-.044-.001-.044-.001-.044-.001h-.044l-.044-.001h-.044l-.044-.001H-42.335l-.044.002h-.044l-.044.001-.044.001-.044.001-.044.001-.044.002-.044.001-.044.002-.045.002-.044.001-.044.002-.044.002-.044.003-.044.002-.044.002-.044.003-.044.002-.044.003-.044.003-.044.003-.044.004-.044.003-.044.003-.044.004-.044.004-.044.004-.045.004-.044.004-.044.004-.044.005-.044.004-.044.005-.044.005-.044.005-.044.006-.044.005-.044.006-.044.006-.044.005-.044.007-.044.006-.044.006-.044.007-.045.007-.044.007-.044.007-.044.007-.044.008-.044.008-.044.008-.044.008-.044.008-.044.009-.044.008-.044.01-.044.008-.044.01-.044.01-.044.01-.044.01-.044.01-.045.01-.044.01-.044.012-.044.011-.044.012-.044.012-.044.012-.044.012-.044.012-.044.013-.044.013-.044.014-.044.013-.044.014-.044.014-.044.015-.044.015-.044.015-.045.016-.044.016-.044.016-.044.016-.044.017-.044.018-.044.017-.044.018-.044.019-.044.018-.044.02-.044.019-.044.02-.044.02-.044.022-.044.02-.044.023-.044.022-.045.023-.044.023-.044.024-.044.024-.044.026-.044.025a5.192 5.192 0 0 0-.088.053l-.044.027-.044.028-.044.03-.044.028-.044.03a5.182 5.182 0 0 0-.088.063c-.015.01-.03.022-.044.033a4.646 4.646 0 0 0-.133.102z"></path></g></g></svg>